# xmcd CD database file
#
# Track frame offsets:
#	150
#	21400
#	47853
#	70324
#	95014
#	120843
#	140569
#	162499
#	182662
#	203830
#	224747
#	241882
#	264043
#
# Disc length: 3863 seconds
#
# Revision: 0
# Processed by: cddbd v1.5.2PL0 Copyright (c) Steve Scherf et al.
# Submitted via: CDex 1.51
#
DISCID=bf0f150d
DTITLE=GRP - GRP Album
DYEAR=2004
DGENRE=Jazz
TTITLE0=Joe Sample - Melodies of Love
TTITLE1=George Benson - The Long and Winding Road
TTITLE2=Arturo Sandoval - Daahoud
TTITLE3=Brecker Brothers - Wakaria (What's Up?)
TTITLE4=Special EFX - Day Break
TTITLE5=Sergio Salvatore - Someday My Prince Will Come
TTITLE6=Jeff Golub - Playin' It Cool
TTITLE7=Tom Scott - Upbeat 90's
TTITLE8=Dave Valentin - My Favorite Things
TTITLE9=Eric Marienthal - Kid's Stuff
TTITLE10=Chris Botti- Same Girl
TTITLE11=Spyro Gyra - Serengeti
TTITLE12=GRP Super Live In Concert - Early A.M. Attitude
EXTD=YEAR: 2004
EXTT0=
EXTT1=
EXTT2=
EXTT3=
EXTT4=
EXTT5=
EXTT6=
EXTT7=
EXTT8=
EXTT9=
EXTT10=
EXTT11=
EXTT12=
PLAYORDER=
